<svg width="36" height="36" viewBox="0 0 36 36" fill="none" xmlns="http://www.w3.org/2000/svg">
<g clip-path="url(#clip0_209_76)">
<mask id="mask0_209_76" style="mask-type:luminance" maskUnits="userSpaceOnUse" x="0" y="0" width="36" height="36">
<path d="M0 0H36V36H0V0Z" fill="white"/>
</mask>
<g mask="url(#mask0_209_76)">
<path d="M16.821 0.0091875C16.743 0.0166875 16.497 0.0421875 16.275 0.0586875C11.163 0.520687 6.375 3.27919 3.339 7.51969C1.66349 9.84785 0.573729 12.5455 0.162 15.3842C0.018 16.3742 0 16.6652 0 18.0062C0 19.3472 0.018 19.6397 0.162 20.6282C1.14 27.3887 5.952 33.0677 12.4755 35.1722C13.644 35.5487 14.8755 35.8052 16.275 35.9612C16.821 36.0212 19.179 36.0212 19.725 35.9612C22.1415 35.6927 24.1905 35.0942 26.2095 34.0637C26.52 33.9062 26.58 33.8627 26.538 33.8282C25.5504 32.5257 24.5729 31.2157 23.6055 29.8982L20.727 26.0087L17.121 20.6702C15.9212 18.8846 14.7101 17.1066 13.488 15.3362C13.4745 15.3317 13.461 17.7032 13.4535 20.6012C13.443 25.6712 13.4385 25.8752 13.3755 25.9952C13.3136 26.1349 13.2041 26.2482 13.0665 26.3147C12.954 26.3717 12.8565 26.3822 12.324 26.3822H11.715L11.553 26.2802C11.4528 26.2169 11.3714 26.1278 11.3175 26.0222L11.2425 25.8647L11.25 18.8087L11.2605 11.7497L11.37 11.6117C11.4427 11.5244 11.5312 11.4516 11.631 11.3972C11.775 11.3267 11.8305 11.3207 12.441 11.3207C13.158 11.3207 13.278 11.3477 13.464 11.5517C13.5165 11.6087 15.4695 14.5517 17.8065 18.0947L24.9075 28.8527L27.7575 33.1697L27.903 33.0752C29.2748 32.1636 30.5183 31.0724 31.6005 29.8307C33.8685 27.2345 35.3398 24.0393 35.838 20.6282C35.982 19.6382 36 19.3472 36 18.0062C36 16.6652 35.982 16.3742 35.838 15.3842C34.86 8.62519 30.048 2.94469 23.5245 0.840187C22.3053 0.452541 21.0498 0.189693 19.7775 0.0556875C19.4385 0.0196875 17.1135 -0.0193125 16.8225 0.0106875M24.192 10.9007C24.2758 10.9426 24.3504 11.0008 24.4114 11.0719C24.4725 11.143 24.5187 11.2255 24.5475 11.3147C24.5745 11.4047 24.582 13.3622 24.5745 17.7722L24.564 24.0992L23.4495 22.3892L22.3305 20.6792V16.0802C22.3305 13.1057 22.344 11.4347 22.365 11.3537C22.3901 11.2601 22.4339 11.1725 22.4937 11.0962C22.5535 11.0199 22.6281 10.9565 22.713 10.9097C22.8585 10.8347 22.911 10.8287 23.463 10.8287C23.9835 10.8287 24.075 10.8362 24.192 10.8992" fill="white"/>
</g>
</g>
<defs>
<clipPath id="clip0_209_76">
<rect width="36" height="36" fill="white"/>
</clipPath>
</defs>
</svg>
