<svg width="36" height="36" viewBox="0 0 36 36" fill="none" xmlns="http://www.w3.org/2000/svg">
<path d="M3.9 15.885L12.57 7.19998L15.105 9.74998C14.745 11.025 15.33 12.42 16.5 13.095V21.405C15.6 21.915 15 22.89 15 24C15 24.7956 15.3161 25.5587 15.8787 26.1213C16.4413 26.6839 17.2043 27 18 27C18.7956 27 19.5587 26.6839 20.1213 26.1213C20.6839 25.5587 21 24.7956 21 24C21 22.89 20.4 21.915 19.5 21.405V14.115L22.605 17.25C22.5 17.475 22.5 17.73 22.5 18C22.5 18.7956 22.8161 19.5587 23.3787 20.1213C23.9413 20.6839 24.7043 21 25.5 21C26.2956 21 27.0587 20.6839 27.6213 20.1213C28.1839 19.5587 28.5 18.7956 28.5 18C28.5 17.2043 28.1839 16.4413 27.6213 15.8787C27.0587 15.3161 26.2956 15 25.5 15C25.23 15 24.975 15 24.75 15.105L20.895 11.25C21.0812 10.5552 21.009 9.8165 20.6918 9.17097C20.3745 8.52544 19.8338 8.01696 19.17 7.73998C18.525 7.49998 17.85 7.43998 17.25 7.60498L14.7 5.06998L15.885 3.89998C17.055 2.71498 18.945 2.71498 20.115 3.89998L32.1 15.885C33.285 17.055 33.285 18.945 32.1 20.115L20.115 32.1C18.945 33.285 17.055 33.285 15.885 32.1L3.9 20.115C2.715 18.945 2.715 17.055 3.9 15.885Z" fill="white"/>
</svg>
